<svg xmlns="http://www.w3.org/2000/svg" xmlns:xlink="http://www.w3.org/1999/xlink" viewBox="0 0 161.55209 163.7121"><defs><clipPath id="a"><rect width="161.55209" height="163.7121" style="fill:none"/></clipPath><clipPath id="b"><path d="M76.7458,63.0793a28.99428,28.99428,0,0,0-36.8895-1.3266l-4.612,3.4968c-.775.7033,10.0397,4.976,10.1534,6.0537A9.25826,9.25826,0,0,0,33.7,80.2295a16.60549,16.60549,0,0,0,2.1807,8.2168L77.955,64.3056a11.95305,11.95305,0,0,0-1.2092-1.2263" style="fill:none"/></clipPath><linearGradient id="c" x1="70.30928" y1="90.6239" x2="41.54928" y2="51.47389" gradientUnits="userSpaceOnUse"><stop offset="0" stop-color="#b6d2ef"/><stop offset="0.96" stop-color="#e6f0f9"/><stop offset="1" stop-color="#e6f0f9"/></linearGradient><clipPath id="d"><path d="M138.60741,127.5193c-1.0829-9.7869-7.91442-20.8567-16.13371-25.6022-.4581-.2642-.9082-.4887-1.3564-.703l-40.064,22.9873,34.9631,26.4881s14.7818-8.0048,17.8801-9.9681a7.80365,7.80365,0,0,0,.7401-.4932l.0119-.0082a8.21333,8.21333,0,0,0,1.584-1.5103,10.32208,10.32208,0,0,0,2.54181-6.8312v-4.2571Z" style="fill:none"/></clipPath><linearGradient id="e" x1="131.91816" y1="156.62341" x2="90.68817" y2="99.15342" xlink:href="#c"/><clipPath id="f"><path d="M120.8874,101.0948c.0443-.6415.0888-1.283.0888-1.9624,0-14.5619-6.0512-27.62-15.5974-35.1077-4.8061-3.7689-9.9947-5.86831-15.4743-5.86831-3.7435,0-6.6274,2.12121-10.5404,4.88521-1.1007.777-2.1129,1.6685-3.2814,2.3389-8.2139,4.7149-40.202,23.0658-40.202,23.0658a16.59743,16.59743,0,0,0,6.1287,6.1753l39.0439,29.5798,40.064-22.9873c-.0759-.0366-.1542-.0842-.2299-.1193" style="fill:none"/></clipPath><linearGradient id="g" x1="33.7" y1="91.1789" x2="138.77001" y2="91.1789" xlink:href="#c"/><clipPath id="h"><path d="M41.4567,115.6759a7.76311,7.76311,0,0,1,9.5978-1.5812l13.5476,7.6442a6.92051,6.92051,0,0,1,3.1714,5.4383V145.076a5.58953,5.58953,0,0,1-5.9391,5.5786l-.5953-.0374a3.14914,3.14914,0,0,1-1.3498-.4l-15.8647-8.9518a6.921,6.921,0,0,1-3.1714-5.438V117.2545a2.36509,2.36509,0,0,1,.6035-1.5786" style="fill:none"/></clipPath><linearGradient id="i" x1="62.46123" y1="152.08187" x2="46.13123" y2="110.99187" gradientUnits="userSpaceOnUse"><stop offset="0" stop-color="#fcc301"/><stop offset="0.85" stop-color="#f49811"/><stop offset="1" stop-color="#f49811"/></linearGradient><clipPath id="j"><path d="M40.8532,118.1109c0-2.0041,1.427-2.8367,3.1714-1.8496l15.4763,8.7568a6.92141,6.92141,0,0,1,3.1717,5.4382v17.6556c0,2.0041-1.4272,2.8361-3.1717,1.8493l-15.4763-8.7568a6.9209,6.9209,0,0,1-3.1714-5.4382Z" style="fill:none"/></clipPath><linearGradient id="k" x1="62.24815" y1="152.75308" x2="42.43815" y2="115.64308" gradientUnits="userSpaceOnUse"><stop offset="0" stop-color="#f49811"/><stop offset="0.14" stop-color="#f49811"/><stop offset="1" stop-color="#fcc301"/></linearGradient><clipPath id="l"><polygon points="49.734 131.997 49.734 141.222 53.664 139.805 53.664 130.58 49.734 131.997" style="fill:none"/></clipPath><linearGradient id="m" x1="49.74" y1="135.9008" x2="53.66" y2="135.9008" gradientUnits="userSpaceOnUse"><stop offset="0" stop-color="#293da5"/><stop offset="1" stop-color="#5f88da"/></linearGradient><clipPath id="n"><path d="M51.7626,126.5516c-1.821-1.0514-3.3109-.2169-3.3109,1.8547a7.68973,7.68973,0,0,0,3.3109,5.8241c1.821,1.1316,3.3112.2968,3.3112-1.8547a7.43321,7.43321,0,0,0-3.3112-5.8241" style="fill:none"/></clipPath><linearGradient id="o" x1="48.46" y1="130.4311" x2="55.07" y2="130.4311" xlink:href="#m"/><clipPath id="p"><path d="M61.5484,122.6897v-8.0306c0-7.7601-1.713-12.6839-5.0905-14.6336a5.15121,5.15121,0,0,0-5.2625-.1462c-1.2968.7483-3.4716,2.8247-3.4716,8.3205v7.8749h.04a.71813.71813,0,0,0,.4104.5517,2.23218,2.23218,0,0,0,2.0138,0,.7179.7179,0,0,0,.4107-.5517h.0403v-7.8749c0-2.9015.7528-5.0683,2.014-5.7963a2.30311,2.30311,0,0,1,2.3471.1463c2.3428,1.3527,3.6331,5.6531,3.6331,12.1093v8.0121a.70836.70836,0,0,0,.4224.6208,2.29461,2.29461,0,0,0,2.0673,0,.72022.72022,0,0,0,.4255-.6023" style="fill:none"/></clipPath><linearGradient id="q" x1="47.7238" y1="111.2897" x2="61.5338" y2="111.2897" xlink:href="#m"/><clipPath id="r"><path d="M33.0511,136.0363h0a.731.731,0,0,1-.699-.5184,13.92907,13.92907,0,0,1-.4249-1.8148,11.11288,11.11288,0,0,1-.1503-1.7793,8.237,8.237,0,0,1,.1554-1.6387,6.06413,6.06413,0,0,1,.4589-1.4057,4.71752,4.71752,0,0,1,.7566-1.1404,4.09759,4.09759,0,0,1,1.0258-.8206,4.16323,4.16323,0,0,1,1.241-.4504,4.98731,4.98731,0,0,1,1.3768-.059,6.35879,6.35879,0,0,1,1.4616.3246,8.62144,8.62144,0,0,1,1.5111.6965,11.10444,11.10444,0,0,1,1.4831,1.034,13.86175,13.86175,0,0,1,1.3638,1.2901.73083.73083,0,0,1-1.0721.9935,12.367,12.367,0,0,0-1.2192-1.154,9.68259,9.68259,0,0,0-1.2863-.8985,7.21574,7.21574,0,0,0-1.2555-.5794,4.91006,4.91006,0,0,0-1.1239-.252,3.5258,3.5258,0,0,0-.963.0399,2.68021,2.68021,0,0,0-.8022.2892,2.63348,2.63348,0,0,0-.6585.5289,3.24447,3.24447,0,0,0-.5198.7863,4.62456,4.62456,0,0,0-.3462,1.067,6.85125,6.85125,0,0,0-.1258,1.3487,9.66919,9.66919,0,0,0,.1309,1.5443,12.56781,12.56781,0,0,0,.3816,1.6257.73.73,0,0,1-.6999.9425m3.6726,6.4585h0a.73073.73073,0,0,1-.5426-.2401,17.50794,17.50794,0,0,1-1.2217-1.516,18.78611,18.78611,0,0,1-1.0624-1.6591,18.29393,18.29393,0,0,1-.8782-1.7555.73052.73052,0,0,1,1.3399-.5825,17.05317,17.05317,0,0,0,.8088,1.6157,17.34232,17.34232,0,0,0,.9788,1.5285,15.911,15.911,0,0,0,1.1191,1.3881.73081.73081,0,0,1-.5417,1.2209Zm5.8634,3.333a5.01051,5.01051,0,0,1-.5989-.0366.73087.73087,0,0,1,.1735-1.4514,3.20029,3.20029,0,0,0,.955-.0192,2.47146,2.47146,0,0,0,1.4468-.811,3.28759,3.28759,0,0,0,.5207-.8085,4.88626,4.88626,0,0,0,.3487-1.1075,7.40374,7.40374,0,0,0,.1272-1.4088,10.2709,10.2709,0,0,0-.1321-1.6027,12.905,12.905,0,0,0-.3815-1.6645.73092.73092,0,0,1,1.4012-.4167,14.48739,14.48739,0,0,1,.424,1.8527,11.73326,11.73326,0,0,1,.15,1.8312,8.848,8.848,0,0,1-.1545,1.6892,6.33468,6.33468,0,0,1-.457,1.4417,4.75692,4.75692,0,0,1-.7548,1.1659,3.94133,3.94133,0,0,1-2.2811,1.2773A4.43051,4.43051,0,0,1,42.5871,145.8278Z" style="fill:none"/></clipPath><linearGradient id="s" x1="31.7769" y1="136.09685" x2="46.9969" y2="136.09685" xlink:href="#m"/><clipPath id="t"><path d="M16.2677,137.2683h0a.73053.73053,0,0,1-.6593-1.0446,5.626,5.626,0,0,1,.9077-1.3694,4.85053,4.85053,0,0,1,1.2288-.9822,4.91994,4.91994,0,0,1,1.4817-.5375,5.798,5.798,0,0,1,1.6568-.0706.73053.73053,0,1,1-.1383,1.4545,4.42059,4.42059,0,0,0-1.241.0507,3.48289,3.48289,0,0,0-1.0449.3782,3.405,3.405,0,0,0-.8606.6885,4.1715,4.1715,0,0,0-.6707,1.0154.73.73,0,0,1-.6602.417m.7901,9.7055h0a.72983.72983,0,0,1-.6704-.4394,20.53955,20.53955,0,0,1-.8187-2.2167.73093.73093,0,1,1,1.3986-.4254,19.18033,19.18033,0,0,0,.76,2.0593.73066.73066,0,0,1-.6695,1.0222Zm11.0137,9.9836a6.12371,6.12371,0,0,1-.7175-.0428,7.59065,7.59065,0,0,1-1.7705-.4459,10.70611,10.70611,0,0,1-1.8414-.9221,14.85734,14.85734,0,0,1-1.8034-1.3286,18.30484,18.30484,0,0,1-1.6656-1.6265,21.30172,21.30172,0,0,1-1.5012-1.8626.73082.73082,0,0,1,1.1877-.8519,19.7245,19.7245,0,0,0,1.3969,1.734,17.01982,17.01982,0,0,0,1.5324,1.4967,13.34657,13.34657,0,0,0,1.6245,1.1973,9.21272,9.21272,0,0,0,1.5866.7966,6.14085,6.14085,0,0,0,1.4278.3617,4.19739,4.19739,0,0,0,1.2342-.0258,3.24468,3.24468,0,0,0,1.8902-1.0596,4.25754,4.25754,0,0,0,.6718-1.0434,6.203,6.203,0,0,0,.4447-1.4123,9.29226,9.29226,0,0,0,.1605-1.7764,12.90811,12.90811,0,0,0-.1653-2.0118,16.28119,16.28119,0,0,0-.4773-2.0832,19.00984,19.00984,0,0,0-.76-2.0865,20.493,20.493,0,0,0-2.2283-3.9192,18.34377,18.34377,0,0,0-1.3938-1.7019.73075.73075,0,1,1,1.0718-.9936,19.84436,19.84436,0,0,1,1.5046,1.8369,21.67061,21.67061,0,0,1,1.3079,2.031,21.94622,21.94622,0,0,1,1.08,2.1688,20.58092,20.58092,0,0,1,.8186,2.247,17.7556,17.7556,0,0,1,.5202,2.2725,14.37137,14.37137,0,0,1,.1831,2.24,10.7619,10.7619,0,0,1-.1876,2.0576,7.69639,7.69639,0,0,1-.5528,1.7456,5.71111,5.71111,0,0,1-.9071,1.4009,4.70141,4.70141,0,0,1-2.7249,1.5265A5.4435,5.4435,0,0,1,28.0715,156.9574Z" style="fill:none"/></clipPath><linearGradient id="u" x1="15.55" y1="145.0832" x2="33.38" y2="145.0832" xlink:href="#m"/><clipPath id="v"><path d="M53.6312,1.6075C47.1101-2.15781,41.7747.9227,41.7747,8.4529c0,7.5299,5.3354,16.7715,11.8565,20.5364,6.5214,3.76529,11.8571.68489,11.8571-6.84541S60.1526,5.3725,53.6312,1.6075" style="fill:none"/></clipPath><linearGradient id="w" x1="52.99893" y1="15.47869" x2="71.62893" y2="10.16869" xlink:href="#m"/><clipPath id="x"><path d="M52.0852,1.99359c-6.5214-3.765-11.8568-.68429-11.8568,6.8459S45.5638,25.611,52.0852,29.376c6.5214,3.7652,11.8568.68451,11.8568-6.84569,0-7.5299-5.3354-16.7715-11.8568-20.53671" style="fill:none"/></clipPath><linearGradient id="y" x1="40.2284" y1="15.68489" x2="63.9084" y2="15.68489" xlink:href="#m"/><clipPath id="z"><path d="M149.9689,65.7482h0c-.108.00529-.2166.09949-.29851.2585a1.6298,1.6298,0,0,0,.06981,1.4471.40861.40861,0,0,0,.3217.2282c.1083-.00491.2177-.0995.30021-.2586a1.6204,1.6204,0,0,0-.06981-1.4462.55936.55936,0,0,0-.20121-.1996.24359.24359,0,0,0-.12219-.0294m-.9779,2.5982a3.44577,3.44577,0,0,1-.152-3.1569,1.18689,1.18689,0,0,1,2.20231-.1069,3.432,3.432,0,0,1,.15159,3.1589,1.30562,1.30562,0,0,1-1.06689.79939,1.06534,1.06534,0,0,1-.53891-.1205A1.59736,1.59736,0,0,1,148.991,68.3464Z" style="fill:none"/></clipPath><linearGradient id="aa" x1="151.57182" y1="67.50858" x2="148.46182" y2="65.90857" gradientUnits="userSpaceOnUse"><stop offset="0" stop-color="#5064a2"/><stop offset="0.41927" stop-color="#4a5a94"/><stop offset="1" stop-color="#435084"/></linearGradient><clipPath id="ab"><path d="M35.1009,54.5227h0a.4068.4068,0,0,0-.1472.3665,1.62921,1.62921,0,0,0,.7243,1.2546.32061.32061,0,0,0,.5391-.3115,1.61943,1.61943,0,0,0-.7239-1.25411.55921.55921,0,0,0-.2705-.085.24.24,0,0,0-.1218.02951m.32,2.7575a3.44519,3.44519,0,0,1-1.5803-2.7371,1.18658,1.18658,0,0,1,1.9088-1.103,3.43227,3.43227,0,0,1,1.5812,2.73911,1.3065,1.3065,0,0,1-.5825,1.1991,1.06566,1.06566,0,0,1-.5344.1395A1.59656,1.59656,0,0,1,35.4209,57.2802Z" style="fill:none"/></clipPath><linearGradient id="ac" x1="33.8406" y1="55.32375" x2="37.3329" y2="55.32375" xlink:href="#m"/><clipPath id="ad"><path d="M106.0968,49.3316h0a.40716.40716,0,0,0-.1468.3662,1.629,1.629,0,0,0,.7245,1.2549.32056.32056,0,0,0,.5389-.3115,1.61928,1.61928,0,0,0-.724-1.25431.56041.56041,0,0,0-.2701-.08509.24559.24559,0,0,0-.1225.0298m.3206,2.7573a3.44481,3.44481,0,0,1-1.5806-2.7369,1.18664,1.18664,0,0,1,1.9086-1.10321,3.43091,3.43091,0,0,1,1.5814,2.73911,1.30519,1.30519,0,0,1-.5825,1.199,1.0651,1.0651,0,0,1-.534.1395A1.59726,1.59726,0,0,1,106.4174,52.0889Z" style="fill:none"/></clipPath><linearGradient id="ae" x1="104.8368" y1="50.1324" x2="108.3168" y2="50.1324" xlink:href="#m"/><clipPath id="af"><path d="M36.1329,34.1815h0a.40771.40771,0,0,0-.1468.36629,1.62857,1.62857,0,0,0,.7243,1.25461.32068.32068,0,0,0,.5391-.31151,1.61933,1.61933,0,0,0-.7242-1.25409.56138.56138,0,0,0-.2702-.085.24361.24361,0,0,0-.1222.02971m.3204,2.75759A3.4456,3.4456,0,0,1,34.8727,34.202a1.18661,1.18661,0,0,1,1.9088-1.103,3.43214,3.43214,0,0,1,1.5815,2.7388,1.30663,1.30663,0,0,1-.5826,1.1991,1.06709,1.06709,0,0,1-.5343.1397A1.59628,1.59628,0,0,1,36.4533,36.93909Z" style="fill:none"/></clipPath><linearGradient id="ag" x1="34.8727" y1="34.98245" x2="38.3652" y2="34.98245" xlink:href="#m"/><clipPath id="ah"><path d="M124.9807,77.0811h0a.65406.65406,0,0,0-.2356.5882,2.61365,2.61365,0,0,0,1.1633,2.0145.51446.51446,0,0,0,.8652-.4997,2.60012,2.60012,0,0,0-1.1622-2.0143.90479.90479,0,0,0-.4343-.1363.38977.38977,0,0,0-.1964.0476m.5144,4.4283a5.53368,5.53368,0,0,1-2.5381-4.3957,1.90574,1.90574,0,0,1,3.0654-1.7714,5.50928,5.50928,0,0,1,2.53931,4.3988,2.09655,2.09655,0,0,1-.93551,1.9253,1.71,1.71,0,0,1-.8574.2245A2.56876,2.56876,0,0,1,125.4951,81.5094Z" style="fill:none"/></clipPath><linearGradient id="ai" x1="122.957" y1="78.3673" x2="128.557" y2="78.3673" xlink:href="#m"/><clipPath id="aj"><path d="M122.2067,24.429h0c-.1738.0022-.3535.14679-.4944.3974a2.6151,2.6151,0,0,0,.0267,2.3261c.1471.246.3296.3872.5031.38549.1741-.0014.3552-.14659.4966-.39709a2.6006,2.6006,0,0,0-.0263-2.32561.90369.90369,0,0,0-.3115-.33189.39332.39332,0,0,0-.1942-.0544m-1.7221,4.1122a5.53389,5.53389,0,0,1-.0586-5.0755,1.90578,1.90578,0,0,1,3.5404-.0416,5.51025,5.51025,0,0,1,.0581,5.07849,2.097,2.097,0,0,1-1.7594,1.21981,1.70653,1.70653,0,0,1-.8575-.2248A2.56412,2.56412,0,0,1,120.4846,28.5412Z" style="fill:none"/></clipPath><linearGradient id="ak" x1="119.78996" y1="24.61217" x2="124.66995" y2="27.35218" xlink:href="#m"/><clipPath id="al"><path d="M12.4764,41.4334h0a.65335.65335,0,0,0-.2361.5885,2.61578,2.61578,0,0,0,1.1633,2.0146.65636.65636,0,0,0,.6276.0896.65594.65594,0,0,0,.2381-.58991,2.60067,2.60067,0,0,0-1.1627-2.0141.90135.90135,0,0,0-.434-.13659.39115.39115,0,0,0-.1962.0479m.5142,4.42829a5.53366,5.53366,0,0,1-2.5384-4.39539,2.09244,2.09244,0,0,1,.9303-1.92361,2.09589,2.09589,0,0,1,2.1354.152,5.50939,5.50939,0,0,1,2.5392,4.39881,2.09731,2.09731,0,0,1-.9354,1.9255,1.71378,1.71378,0,0,1-.8578.224A2.56386,2.56386,0,0,1,12.9906,45.86169Z" style="fill:none"/></clipPath><linearGradient id="am" x1="16.0614" y1="42.7195" x2="10.4522" y2="42.7195" xlink:href="#aa"/><clipPath id="an"><path d="M11.245,69.4451h0a.654.654,0,0,0-.2361.5885,2.61558,2.61558,0,0,0,1.1636,2.01459.65494.65494,0,0,0,.6273.08951.65512.65512,0,0,0,.2382-.5896,2.60056,2.60056,0,0,0-1.1628-2.014.89939.89939,0,0,0-.434-.1366.39183.39183,0,0,0-.1962.0476m.5145,4.4283A5.5324,5.5324,0,0,1,9.2211,69.478a2.09256,2.09256,0,0,1,.93-1.9236,2.09753,2.09753,0,0,1,2.1354.1522,5.50944,5.50944,0,0,1,2.5395,4.39849,2.0967,2.0967,0,0,1-.9354,1.92561,1.71064,1.71064,0,0,1-.858.2242A2.56028,2.56028,0,0,1,11.7595,73.8734Z" style="fill:none"/></clipPath><linearGradient id="ao" x1="9.23" y1="70.73145" x2="14.82" y2="70.73145" xlink:href="#m"/><clipPath id="ap"><path d="M77.798,27.40309h0a.65271.65271,0,0,0-.2361.58811,2.61452,2.61452,0,0,0,1.1633,2.0146.51478.51478,0,0,0,.8657-.5,2.60016,2.60016,0,0,0-1.1628-2.014.90033.90033,0,0,0-.434-.1366.387.387,0,0,0-.1961.0479m.5145,4.42821a5.5325,5.5325,0,0,1-2.5387-4.3956,1.9059,1.9059,0,0,1,3.0656-1.77141A5.51162,5.51162,0,0,1,81.379,30.0631a2.09742,2.09742,0,0,1-.9357,1.9253,1.7119,1.7119,0,0,1-.8578.2242A2.56523,2.56523,0,0,1,78.3125,31.8313Z" style="fill:none"/></clipPath><linearGradient id="aq" x1="75.78" y1="28.68915" x2="81.38" y2="28.68915" xlink:href="#m"/><clipPath id="ar"><path d="M156.475,81.8396h0a.84179.84179,0,0,0-.3033.7574,3.36547,3.36547,0,0,0,1.49719,2.5934.66276.66276,0,0,0,1.1141-.644,3.34739,3.34739,0,0,0-1.4967-2.5923,1.15836,1.15836,0,0,0-.5585-.17569.506.506,0,0,0-.25279.0612m.66189,5.7005a7.12338,7.12338,0,0,1-3.26719-5.6583,2.45326,2.45326,0,0,1,3.94609-2.2802,7.09391,7.09391,0,0,1,3.2689,5.66219,2.69924,2.69924,0,0,1-1.20441,2.47841,2.20141,2.20141,0,0,1-1.10409.2888A3.30725,3.30725,0,0,1,157.1369,87.5401Z" style="fill:none"/></clipPath><linearGradient id="as" x1="153.86971" y1="83.4953" x2="161.07971" y2="83.4953" xlink:href="#m"/><clipPath id="at"><path d="M13.4033,30.3454c-6.5211-3.7652-11.8564-.6848-11.8564,6.8454,0,7.53,5.3353,16.7715,11.8564,20.5364,6.5214,3.7653,11.8571.68489,11.8571-6.8453S19.9247,34.1104,13.4033,30.3454" style="fill:none;clip-rule:evenodd"/></clipPath><linearGradient id="au" x1="23.2309" y1="26.58053" x2="31.32089" y2="12.21054" gradientUnits="userSpaceOnUse"><stop offset="0" stop-color="#ff9800"/><stop offset="0.71" stop-color="#ffc107"/><stop offset="1" stop-color="#ffc107"/></linearGradient><clipPath id="av"><path d="M11.8573,30.73149C5.3359,26.96649.0006,30.0472.0006,37.5775S5.3359,54.3489,11.8573,58.1139c6.5214,3.7653,11.8568.6846,11.8568-6.8457,0-7.5299-5.3354-16.7714-11.8568-20.53671" style="fill:none;clip-rule:evenodd"/></clipPath><linearGradient id="aw" x1="3.93937" y1="52.66985" x2="18.85937" y2="37.12985" xlink:href="#au"/><clipPath id="ax"><path d="M97.4954,1.9077c-6.5211-3.7653-11.8565-.68491-11.8565,6.8454,0,7.5299,5.3354,16.77139,11.8565,20.53639,6.5214,3.7653,11.857.68491,11.857-6.8454S104.0168,5.6727,97.4954,1.9077" style="fill:none;clip-rule:evenodd"/></clipPath><linearGradient id="ay" x1="83.69045" y1="55.98079" x2="115.35044" y2="-36.62921" xlink:href="#au"/><clipPath id="az"><path d="M95.9494,2.29379c-6.5214-3.765-11.8568-.68429-11.8568,6.8459s5.3354,16.7715,11.8568,20.5365c6.5213,3.7652,11.8567.68451,11.8567-6.8457,0-7.53-5.3354-16.7715-11.8567-20.5367" style="fill:none;clip-rule:evenodd"/></clipPath><linearGradient id="ba" x1="92.34253" y1="19.63248" x2="103.01252" y2="8.84248" xlink:href="#au"/><clipPath id="bb"><path d="M132.05881,40.50079c-6.52111-3.76519-11.85651-.6848-11.85651,6.84541,0,7.53,5.3354,16.7715,11.85651,20.5365,6.52139,3.7652,11.857.6848,11.857-6.8454s-5.3356-16.7715-11.857-20.53651" style="fill:none"/></clipPath><linearGradient id="bc" x1="134.87754" y1="53.2617" x2="144.81753" y2="49.9817" xlink:href="#m"/><clipPath id="bd"><path d="M130.5128,40.88689c-6.5214-3.765-11.8568-.68429-11.8568,6.846s5.3354,16.77141,11.8568,20.5364c6.5213,3.76531,11.85671.68461,11.85671-6.84569,0-7.5299-5.33541-16.7714-11.85671-20.53671" style="fill:none"/></clipPath><linearGradient id="be" x1="118.656" y1="54.57825" x2="142.33601" y2="54.57825" xlink:href="#m"/><clipPath id="bf"><path d="M149.69479,87.46149c-6.52108-3.76519-11.85649-.68479-11.85649,6.84541,0,7.53,5.33541,16.7715,11.85649,20.5365,6.52141,3.7652,11.857.6848,11.857-6.8454s-5.3356-16.77151-11.857-20.53651" style="fill:none;clip-rule:evenodd"/></clipPath><linearGradient id="bg" x1="151.13797" y1="98.58944" x2="159.22797" y2="84.21944" xlink:href="#au"/><clipPath id="bh"><path d="M148.1488,87.8476c-6.5214-3.7649-11.85679-.6843-11.85679,6.846S141.6274,111.465,148.1488,115.23c6.5214,3.7653,11.85669.6846,11.85669-6.8456,0-7.53-5.33529-16.7715-11.85669-20.5368" style="fill:none;clip-rule:evenodd"/></clipPath><linearGradient id="bi" x1="140.23318" y1="109.7835" x2="155.15318" y2="94.2435" xlink:href="#au"/><clipPath id="bj"><path d="M78.1957,40.95779C72.222,37.5086,67.3345,40.3305,67.3345,47.2286c0,6.8978,4.8875,15.36349,10.8612,18.8124,5.9737,3.4492,10.8615.6273,10.8615-6.2708S84.1694,44.4067,78.1957,40.95779" style="fill:none"/></clipPath><linearGradient id="bk" x1="81.79674" y1="52.47457" x2="88.22674" y2="50.64457" xlink:href="#m"/><clipPath id="bl"><path d="M76.7792,41.3115c-5.9737-3.44891-10.8612-.627-10.8612,6.2711S70.8055,62.9461,76.7792,66.395c5.974,3.4492,10.8615.62709,10.8615-6.2708,0-6.8981-4.8875-15.3635-10.8615-18.8127" style="fill:none"/></clipPath><linearGradient id="bm" x1="65.918" y1="53.8534" x2="87.618" y2="53.8534" xlink:href="#m"/></defs><title>9</title><g style="clip-path:url(#a)"><polygon points="22.98 97.121 1.992 109.016 94.637 163.711 115.626 150.609 22.98 97.121" style="fill:#223b7a;opacity:0.30000001192092896"/><polygon points="22.98 97.121 2.395 108.788 95.015 163.478 115.626 150.609 22.98 97.121" style="fill:#223b7a;opacity:0.30000001192092896"/><polygon points="22.98 97.121 2.797 108.559 95.394 163.246 115.626 150.609 22.98 97.121" style="fill:#223b7a;opacity:0.30000001192092896"/><polygon points="22.98 97.121 3.199 108.331 95.772 163.012 115.626 150.609 22.98 97.121" style="fill:#223b7a;opacity:0.30000001192092896"/><polygon points="22.98 97.121 3.601 108.102 96.149 162.779 115.626 150.609 22.98 97.121" style="fill:#223b7a;opacity:0.30000001192092896"/><polygon points="22.98 97.121 4.004 107.874 96.528 162.546 115.626 150.609 22.98 97.121" style="fill:#223b7a;opacity:0.30000001192092896"/><polygon points="22.98 97.121 4.406 107.645 96.906 162.313 115.626 150.609 22.98 97.121" style="fill:#223b7a;opacity:0.30000001192092896"/><polygon points="22.98 97.121 4.808 107.417 97.284 162.08 115.626 150.609 22.98 97.121" style="fill:#223b7a;opacity:0.30000001192092896"/><polygon points="22.98 97.121 5.21 107.188 97.662 161.847 115.626 150.609 22.98 97.121" style="fill:#223b7a;opacity:0.30000001192092896"/><polygon points="22.98 97.121 5.612 106.96 98.04 161.614 115.626 150.609 22.98 97.121" style="fill:#223b7a;opacity:0.30000001192092896"/><polygon points="22.98 97.121 6.015 106.731 98.418 161.381 115.626 150.609 22.98 97.121" style="fill:#223b7a;opacity:0.30000001192092896"/><polygon points="22.98 97.121 6.417 106.503 98.796 161.148 115.626 150.609 22.98 97.121" style="fill:#223b7a;opacity:0.30000001192092896"/><polygon points="22.98 97.121 6.819 106.274 99.174 160.915 115.626 150.609 22.98 97.121" style="fill:#223b7a;opacity:0.30000001192092896"/><polygon points="22.98 97.121 7.221 106.046 99.552 160.682 115.626 150.609 22.98 97.121" style="fill:#223b7a;opacity:0.30000001192092896"/><polygon points="22.98 97.121 7.623 105.818 99.93 160.449 115.626 150.609 22.98 97.121" style="fill:#223b7a;opacity:0.30000001192092896"/><polygon points="22.98 97.121 8.026 105.589 100.309 160.216 115.626 150.609 22.98 97.121" style="fill:#223b7a;opacity:0.30000001192092896"/><polygon points="22.98 97.121 8.428 105.361 100.687 159.983 115.626 150.609 22.98 97.121" style="fill:#223b7a;opacity:0.30000001192092896"/><polygon points="22.98 97.121 8.83 105.132 101.065 159.749 115.626 150.609 22.98 97.121" style="fill:#223b7a;opacity:0.30000001192092896"/><polygon points="22.98 97.121 9.232 104.904 101.443 159.516 115.626 150.609 22.98 97.121" style="fill:#223b7a;opacity:0.30000001192092896"/><polygon points="22.98 97.121 9.635 104.675 101.821 159.283 115.626 150.609 22.98 97.121" style="fill:#223b7a;opacity:0.30000001192092896"/><polygon points="22.98 97.121 10.037 104.447 102.199 159.05 115.626 150.609 22.98 97.121" style="fill:#223b7a;opacity:0.30000001192092896"/><polygon points="22.98 97.121 10.439 104.219 102.577 158.817 115.626 150.609 22.98 97.121" style="fill:#223b7a;opacity:0.30000001192092896"/><polygon points="22.98 97.121 10.841 103.99 102.955 158.584 115.626 150.609 22.98 97.121" style="fill:#223b7a;opacity:0.30000001192092896"/><polygon points="22.98 97.121 11.244 103.761 103.333 158.351 115.626 150.609 22.98 97.121" style="fill:#223b7a;opacity:0.30000001192092896"/><polygon points="22.98 97.121 11.646 103.533 103.712 158.118 115.626 150.609 22.98 97.121" style="fill:#223b7a;opacity:0.30000001192092896"/><polygon points="22.98 97.121 12.048 103.304 104.09 157.885 115.626 150.609 22.98 97.121" style="fill:#223b7a;opacity:0.30000001192092896"/><polygon points="22.98 97.121 12.45 103.076 104.467 157.652 115.626 150.609 22.98 97.121" style="fill:#223b7a;opacity:0.30000001192092896"/><polygon points="22.98 97.121 12.853 102.847 104.846 157.419 115.626 150.609 22.98 97.121" style="fill:#223b7a;opacity:0.30000001192092896"/><polygon points="22.98 97.121 13.255 102.619 105.224 157.186 115.626 150.609 22.98 97.121" style="fill:#223b7a;opacity:0.30000001192092896"/><polygon points="22.98 97.121 13.657 102.391 105.602 156.953 115.626 150.609 22.98 97.121" style="fill:#223b7a;opacity:0.30000001192092896"/><polygon points="22.98 97.121 14.059 102.162 105.98 156.719 115.626 150.609 22.98 97.121" style="fill:#223b7a;opacity:0.30000001192092896"/><polygon points="22.98 97.121 14.462 101.934 106.358 156.486 115.626 150.609 22.98 97.121" style="fill:#223b7a;opacity:0.30000001192092896"/><polygon points="22.98 97.121 14.864 101.705 106.736 156.253 115.626 150.609 22.98 97.121" style="fill:#223b7a;opacity:0.30000001192092896"/><polygon points="22.98 97.121 15.266 101.477 107.114 156.02 115.626 150.609 22.98 97.121" style="fill:#223b7a;opacity:0.30000001192092896"/><polygon points="22.98 97.121 15.668 101.248 107.492 155.787 115.626 150.609 22.98 97.121" style="fill:#223b7a;opacity:0.30000001192092896"/><polygon points="22.98 97.121 16.07 101.02 107.87 155.554 115.626 150.609 22.98 97.121" style="fill:#223b7a;opacity:0.30000001192092896"/><polygon points="22.98 97.121 16.473 100.791 108.248 155.321 115.626 150.609 22.98 97.121" style="fill:#223b7a;opacity:0.30000001192092896"/><polygon points="22.98 97.121 16.875 100.563 108.627 155.088 115.626 150.609 22.98 97.121" style="fill:#223b7a;opacity:0.30000001192092896"/><polygon points="22.98 97.121 17.277 100.335 109.005 154.855 115.626 150.609 22.98 97.121" style="fill:#223b7a;opacity:0.30000001192092896"/><polygon points="22.98 97.121 17.679 100.106 109.383 154.622 115.626 150.609 22.98 97.121" style="fill:#223b7a;opacity:0.30000001192092896"/><polygon points="22.98 97.121 18.082 99.878 109.761 154.389 115.626 150.609 22.98 97.121" style="fill:#223b7a;opacity:0.30000001192092896"/><polygon points="22.98 97.121 18.484 99.649 110.139 154.156 115.626 150.609 22.98 97.121" style="fill:#223b7a;opacity:0.30000001192092896"/><g style="clip-path:url(#b)"><rect x="33.7" y="53.3744" width="44.255" height="35.0719" style="fill:url(#c)"/></g><g style="clip-path:url(#d)"><rect x="81.0533" y="101.2141" width="57.72101" height="49.4754" style="fill:url(#e)"/></g><g style="clip-path:url(#f)"><rect x="35.8807" y="58.15639" width="85.2366" height="66.045" style="fill:url(#g)"/></g><path d="M118.3915,139.4997c-1.0828-9.7872-7.9146-20.8573-16.1339-25.6028-.5355-.309-1.0639-.5797-1.5863-.8223.0442-.6415.089-1.2827.089-1.9625,0-14.5618-10.3181-32.4334-22.9292-39.7142-10.1434-5.85611-18.7917-3.13511-21.7924,5.7263a37.9962,37.9962,0,0,0-10.2328-9.0533C34.357,61.461,24.9897,66.869,24.9897,80.0895a30.58786,30.58786,0,0,0,.1922,3.1935,9.25884,9.25884,0,0,0-11.6981,8.9263,16.61886,16.61886,0,0,0,8.3098,14.3923l81.0627,46.3644a10.388,10.388,0,0,0,10.824-.2648,7.88509,7.88509,0,0,0,.7405-.4929l.0119-.0083a8.20436,8.20436,0,0,0,1.5837-1.5105,10.3216,10.3216,0,0,0,2.5418-6.8313v-4.2567Z" style="fill:#fff"/><path d="M53.7732,106.1104h0c0-2.9015.7529-5.0681,2.014-5.7963a2.30306,2.30306,0,0,1,2.3471.1463c2.3429,1.3524,3.6335,5.6528,3.6335,12.109v3.712l-7.579-4.2764c-.1349-.0759-.2781-.1218-.4156-.189ZM70.9081,134.693v-9.6055a6.9213,6.9213,0,0,0-3.1714-5.4383l-3.0543-1.7231v-5.3567c0-7.7598-1.713-12.6839-5.0905-14.6336a5.15065,5.15065,0,0,0-5.2622-.1462c-1.2966.7483-3.4716,2.8247-3.4716,8.3208v4.9323a7.73718,7.73718,0,0,0-6.2671,2.5438,2.36637,2.36637,0,0,0-.6038,1.5786v4.1307Z" style="fill:#a5caef;opacity:0.5"/><g style="clip-path:url(#h)"><rect x="40.8532" y="112.3035" width="26.9203" height="38.5529" style="fill:url(#i)"/></g><g style="clip-path:url(#j)"><rect x="40.8532" y="115.2742" width="21.8194" height="35.6738" style="fill:url(#k)"/></g><g style="clip-path:url(#l)"><rect x="49.7344" y="130.5799" width="3.9294" height="10.6418" style="fill:url(#m)"/></g><g style="clip-path:url(#n)"><rect x="48.4517" y="125.5002" width="6.6221" height="9.8618" style="fill:url(#o)"/></g><g style="clip-path:url(#p)"><rect x="47.7238" y="98.9594" width="13.8271" height="24.6606" style="fill:url(#q)"/></g><g style="clip-path:url(#r)"><rect x="31.7769" y="126.3659" width="15.2448" height="19.4619" style="fill:url(#s)"/></g><g style="clip-path:url(#t)"><rect x="15.4349" y="133.209" width="17.9558" height="23.7484" style="fill:url(#u)"/></g><g style="clip-path:url(#v)"><rect x="41.7747" y="-2.15781" width="23.7136" height="34.9124" style="fill:url(#w)"/></g><g style="clip-path:url(#x)"><rect x="40.2284" y="-1.77141" width="23.7136" height="34.9126" style="fill:url(#y)"/></g><g style="clip-path:url(#z)"><rect x="148.3705" y="64.36909" width="3.2941" height="4.6797" style="fill:url(#aa)"/></g><g style="clip-path:url(#ab)"><rect x="33.8406" y="53.1297" width="3.4923" height="4.3881" style="fill:url(#ac)"/></g><g style="clip-path:url(#ad)"><rect x="104.8368" y="47.9384" width="3.4926" height="4.388" style="fill:url(#ae)"/></g><g style="clip-path:url(#af)"><rect x="34.8727" y="32.7883" width="3.4925" height="4.3883" style="fill:url(#ag)"/></g><g style="clip-path:url(#ah)"><rect x="122.957" y="74.8437" width="5.6089" height="7.0472" style="fill:url(#ai)"/></g><g style="clip-path:url(#aj)"><rect x="119.6209" y="22.2375" width="5.2141" height="7.48709" style="fill:url(#ak)"/></g><g style="clip-path:url(#al)"><rect x="10.4522" y="39.196" width="5.6092" height="7.047" style="fill:url(#am)"/></g><g style="clip-path:url(#an)"><rect x="9.2211" y="67.208" width="5.6092" height="7.0469" style="fill:url(#ao)"/></g><g style="clip-path:url(#ap)"><rect x="75.7738" y="25.1657" width="5.60889" height="7.04691" style="fill:url(#aq)"/></g><g style="clip-path:url(#ar)"><rect x="153.86971" y="78.95959" width="7.22009" height="9.0714" style="fill:url(#as)"/></g><g style="clip-path:url(#at)"><rect x="1.5469" y="26.5802" width="23.7135" height="34.9123" style="fill:url(#au)"/></g><g style="clip-path:url(#av)"><rect x="0.0006" y="26.96649" width="23.7135" height="34.9127" style="fill:url(#aw)"/></g><g style="clip-path:url(#ax)"><rect x="85.6389" y="-1.8576" width="23.7135" height="34.9124" style="fill:url(#ay)"/></g><g style="clip-path:url(#az)"><rect x="84.0926" y="-1.47121" width="23.7135" height="34.9126" style="fill:url(#ba)"/></g><g style="clip-path:url(#bb)"><rect x="120.2023" y="36.7356" width="23.7135" height="34.9123" style="fill:url(#bc)"/></g><g style="clip-path:url(#bd)"><rect x="118.656" y="37.12189" width="23.71351" height="34.9127" style="fill:url(#be)"/></g><g style="clip-path:url(#bf)"><rect x="137.8383" y="83.6963" width="23.7135" height="34.9123" style="fill:url(#bg)"/></g><g style="clip-path:url(#bh)"><rect x="136.29201" y="84.0827" width="23.71349" height="34.9126" style="fill:url(#bi)"/></g><g style="clip-path:url(#bj)"><rect x="67.3345" y="37.5086" width="21.72269" height="31.9816" style="fill:url(#bk)"/></g><g style="clip-path:url(#bl)"><rect x="65.918" y="37.86259" width="21.7227" height="31.98161" style="fill:url(#bm)"/></g><polygon points="75.943 45.738 75.935 45.713 73.815 53.886 76.185 56.947 76.202 56.946 79.552 56.692 75.943 45.738" style="fill:#e6e6e8"/><polygon points="73.882 54.771 75.997 57.57 79.598 57.297 77.238 62.593 73.882 54.771" style="fill:#fff"/><path d="M13.4685,48.90269Q12.18315,48.327,10.927,47.7173q-.0477-1.35482-.104-2.69321.912.40816,1.8354.79881a2.96535,2.96535,0,0,0,.6262.1737c.0482.04709.0946.09639.1425.1429a2.53684,2.53684,0,0,1,1.5463,2.0443c0,.7838-.6584,1.0381-1.4833.6801a.1726.1726,0,0,0-.0216.03879m-1.0091-8.2686a2.20453,2.20453,0,0,1,1.2611,1.81871c-.0399.66919-.3597,1.0845-.7733,1.0065q-1.1493-.45152-2.2787-.91841c-.053-.87959-.108-1.75919-.1653-2.63079Q11.47475,40.27954,12.4594,40.63409Zm4.5862,8.16771a5.65842,5.65842,0,0,0-1.6577-3.89711,3.47859,3.47859,0,0,0,.405-1.8527,7.09435,7.09435,0,0,0-.9198-2.82809,3.86726,3.86726,0,0,0-1.715-1.6319c-.0187-.72651-.0413-1.44771-.0626-2.17161-.7277-.205-1.4485-.4207-2.1643-.63839.0519.6848.1027,1.3728.1506,2.06019-.2279-.08049-.4558-.16069-.6838-.24409q-.08625-1.0311-.1746-2.0548-1.0596-.35041-2.1004-.71321.10965,1.004.216,2.0157c-.3413-.13229-.6801-.27009-1.0157-.41009.0774.75.1545,1.4972.229,2.2495q.49365.2178.993.42829c.1038,1.253.2078,2.5169.2934,3.78541.0859,1.2711.1585,2.558.2279,3.8503-.3092-.16831-.6171-.3347-.9252-.506.0453.78351.0867,1.5673.1267,2.35851.2988.1763.5984.3529.9011.5267.0202.51129.036,1.02239.0545,1.536q.89205.52185,1.8048,1.0251c-.0057-.5216-.0151-1.04321-.0241-1.56481.2052.11431.4116.2231.6182.33511q.0123.7776.0187,1.559c.6171.3297,1.2422.6537,1.87.9729.004-.5369.008-1.07411.0105-1.6087a2.3778,2.3778,0,0,0,2.4392-.127A2.97742,2.97742,0,0,0,17.0456,48.8018Z" style="fill:#fff;fill-rule:evenodd"/><path d="M56.899,23.709q.20955-1.57846.3495-3.23241c-.6945-.2254-1.3893-.44729-2.0792-.66729s-1.3779-.43821-2.0611-.6545c-.0022-1.0908-.0246-2.2019-.0473-3.346.487-.29509.9765-.5885,1.4703-.88559.0247-.75911.0451-1.5309.0587-2.30821q-.7275.46471-1.4502.93321c.0181-.9553.0349-1.91821.0317-2.884-.0034-.97371-.0204-1.9528-.0428-2.941q-1.90785-.781-3.8043-1.56209c.079,1.67749.1465,3.34059.1692,4.9816.0224,1.62759.0246,3.24879.1465,4.9119-.3381.27659-.6721.5516-1.0012.8305.0428.7552.0811,1.5069.1083,2.24759.3246-.26219.654-.52609.9876-.7883q.017,1.72966-.0428,3.4084c1.1772.3172,2.3732.6315,3.5697.9552,1.2024.32521,2.4196.66191,3.6374,1.001" style="fill:#fff"/><path d="M93.6984,19.993q.03945-1.49625.0813-3.00411.0438-1.51424.097-3.04159c.6494,1.2753,1.2999,2.5727,1.9216,3.9033.6307,1.34839,1.235,2.732,1.8397,4.13629.2046.61881.6803.96691,1.0624.8864a1.272,1.272,0,0,0,.7772-1.2713c.0689-1.04549.1384-2.09059.2107-3.14479.3342.13319.6695.26449,1.0037.3977.5153.20749.9933-.36961,1.0672-1.2866.0763-.9202-.2945-1.80341-.8212-1.9809-.341-.1103-.6837-.22391-1.0247-.3359q.0927-1.66245.1928-3.3341c.057-.8997-.3257-1.7444-.8824-1.8663-.5585-.1216-1.0313.5-1.0894,1.3691q-.09225,1.4997-.1786,2.9837-.085,1.48138-.1664,2.954c-.6213-1.3632-1.2427-2.7028-1.8921-4.00669-.6409-1.2864-1.309-2.54131-1.9758-3.7704a.93759.93759,0,0,0-1.1548-.5978,1.31035,1.31035,0,0,0-.7174,1.269q-.04215,1.28713-.0783,2.5657c-.3319-.1009-.6621-.1999-.9938-.2991-.5292-.14261-.9683.32539-.9762,1.0565a1.78081,1.78081,0,0,0,.9399,1.6489c.3243.11479.646.2285.9689.3419-.0105.59889-.0224,1.1928-.03,1.78659-.008.5916-.0171,1.1841-.0233,1.77251a2.06815,2.06815,0,0,0,.9031,1.7805c.5122.24719.9168-.1392.9389-.9125" style="fill:#fff"/><path d="M127.4414,56.715a2.41808,2.41808,0,0,0,1.296-1.7819c.0598.0187.11911.03489.18229.0522a2.65233,2.65233,0,0,1,1.13721,1.12929,2.75155,2.75155,0,0,0-.40221,3.17571,3.22852,3.22852,0,0,0,1.55231,1.6021,4.45862,4.45862,0,0,0,2.45821.385c1.60809-.37931,2.10019-1.9061,1.22619-3.553a3.95782,3.95782,0,0,0-3.40609-2.2252,2.46714,2.46714,0,0,1-.24231-1.5177c.0388-.1224.07791-.2477.127-.3713a3.0786,3.0786,0,0,0,2.61579.457c1.42582-.4391,1.81191-2.2405.809-4.04961a4.60526,4.60526,0,0,0-1.8542-1.9656,2.869,2.869,0,0,0-2.28549-.199c-1.23851.6843-1.53872,2.56369-.7175,4.17379a2.31649,2.31649,0,0,1-.767.73021,2.13594,2.13594,0,0,1-.72088.2078c-.02181-.0409-.04451-.0803-.06491-.1202a2.95543,2.95543,0,0,0-1.5069-1.56961,2.23539,2.23539,0,0,0-1.9622.19761,3.42067,3.42067,0,0,0-.8509,3.9957,2.23821,2.23821,0,0,0,1.3051,1.33829,3.01669,3.01669,0,0,0,2.0715-.09159h0" style="fill:#fff"/><path d="M152.0374,106.9506q.5799-1.549,1.1443-3.0583.56085-1.49505,1.1599-2.9755c.14351-.3555-.14591-.9216-.6499-1.2875-.5057-.36461-1.0387-.3787-1.1818-.0193q-.62295,1.50645-1.19169,3.0413c-.379,1.0301-.7489,2.063-1.12711,3.0866-.0861.2472-.40111.277-.75481.0998-.775-.3801-1.55259-.7585-2.32609-1.1285q-1.16176-.55575-2.3259-1.1143a1.66921,1.66921,0,0,1-.5771-.4793.81132.81132,0,0,1-.1633-.6582c.3192-.9187.61571-1.8374.92641-2.7519.3107-.9142.6503-1.8235,1.00538-2.7334.1474-.3507-.1859-.9437-.73469-1.32131-.5542-.379-1.12281-.37359-1.2659-.02209-.3481.9114-.6835,1.8233-.9885,2.7406-.3047.9158-.587,1.8326-.868,2.7493a2.81685,2.81685,0,0,0,.576,2.1997,5.55214,5.55214,0,0,0,2.1997,1.9482c.77359.3722,1.5475.7385,2.3205,1.1089q1.15813.555,2.31019,1.1257c1.14582.5054,2.1886.2948,2.51241-.5505" style="fill:#fff"/><path d="M149.19,101.7221c.2806-.7679.56011-1.5409.862-2.31.30409-.77409.6417-1.54339.9941-2.31109.1777-.3551-.10891-.9513-.6231-1.3169-.51989-.3685-1.10411-.4023-1.28041-.04651-.36079.77021-.71179,1.53611-1.02409,2.30711-.3107.7668-.5916,1.542-.86771,2.3136-.13069.3595.20182.9502.73441,1.3315.5287.3812,1.06979.3889,1.2048.0323" style="fill:#fff"/></g></svg>